<svg xmlns="http://www.w3.org/2000/svg" width="980" height="560" viewBox="0 0 980 560">
<rect width="100%" height="100%" fill="#ffffff"/>
<text x="490.0" y="35" text-anchor="middle" font-family="Arial" font-size="22" font-weight="700">Training Loss Curves</text>
<line x1="90" y1="70" x2="90" y2="490" stroke="#111827"/>
<line x1="90" y1="490" x2="790" y2="490" stroke="#111827"/>
<text x="20" y="280.0" transform="rotate(-90 20 280.0)" text-anchor="middle" font-family="Arial" font-size="14">Training loss</text>
<text x="440.0" y="540" text-anchor="middle" font-family="Arial" font-size="14">Epoch</text>
<line x1="85" y1="490.0" x2="790" y2="490.0" stroke="#e5e7eb"/>
<text x="80" y="494.0" text-anchor="end" font-family="Arial" font-size="12" fill="#374151">1.54</text>
<line x1="85" y1="406.0" x2="790" y2="406.0" stroke="#e5e7eb"/>
<text x="80" y="410.0" text-anchor="end" font-family="Arial" font-size="12" fill="#374151">1.56</text>
<line x1="85" y1="322.0" x2="790" y2="322.0" stroke="#e5e7eb"/>
<text x="80" y="326.0" text-anchor="end" font-family="Arial" font-size="12" fill="#374151">1.58</text>
<line x1="85" y1="238.0" x2="790" y2="238.0" stroke="#e5e7eb"/>
<text x="80" y="242.0" text-anchor="end" font-family="Arial" font-size="12" fill="#374151">1.60</text>
<line x1="85" y1="154.0" x2="790" y2="154.0" stroke="#e5e7eb"/>
<text x="80" y="158.0" text-anchor="end" font-family="Arial" font-size="12" fill="#374151">1.62</text>
<line x1="85" y1="70.0" x2="790" y2="70.0" stroke="#e5e7eb"/>
<text x="80" y="74.0" text-anchor="end" font-family="Arial" font-size="12" fill="#374151">1.65</text>
<line x1="90.0" y1="70" x2="90.0" y2="495" stroke="#f3f4f6"/>
<text x="90.0" y="512" text-anchor="middle" font-family="Arial" font-size="12" fill="#374151">0</text>
<line x1="230.0" y1="70" x2="230.0" y2="495" stroke="#f3f4f6"/>
<text x="230.0" y="512" text-anchor="middle" font-family="Arial" font-size="12" fill="#374151">4</text>
<line x1="370.0" y1="70" x2="370.0" y2="495" stroke="#f3f4f6"/>
<text x="370.0" y="512" text-anchor="middle" font-family="Arial" font-size="12" fill="#374151">9</text>
<line x1="510.0" y1="70" x2="510.0" y2="495" stroke="#f3f4f6"/>
<text x="510.0" y="512" text-anchor="middle" font-family="Arial" font-size="12" fill="#374151">13</text>
<line x1="650.0" y1="70" x2="650.0" y2="495" stroke="#f3f4f6"/>
<text x="650.0" y="512" text-anchor="middle" font-family="Arial" font-size="12" fill="#374151">18</text>
<line x1="790.0" y1="70" x2="790.0" y2="495" stroke="#f3f4f6"/>
<text x="790.0" y="512" text-anchor="middle" font-family="Arial" font-size="12" fill="#374151">22</text>
<polyline fill="none" stroke="#2563eb" stroke-width="2.2" points="121.8,115.7 153.6,213.7 185.5,286.5 217.3,308.1 249.1,324.6 280.9,340.7 312.7,357.5 344.5,369.3 376.4,369.9 408.2,380.4 440.0,385.3 471.8,391.1 503.6,395.0 535.5,398.0 567.3,400.0 599.1,405.1 630.9,403.7 662.7,407.0 694.5,409.0 726.4,410.6"/>
<line x1="815" y1="70" x2="839" y2="70" stroke="#2563eb" stroke-width="3"/>
<text x="847" y="74" font-family="Arial" font-size="13">ergo</text>
<polyline fill="none" stroke="#dc2626" stroke-width="2.2" points="121.8,99.0 153.6,128.5 185.5,133.1 217.3,134.2 249.1,135.8 280.9,136.5 312.7,131.3 344.5,135.6 376.4,143.1 408.2,148.9 440.0,148.5"/>
<line x1="815" y1="94" x2="839" y2="94" stroke="#dc2626" stroke-width="3"/>
<text x="847" y="98" font-family="Arial" font-size="13">est</text>
<polyline fill="none" stroke="#16a34a" stroke-width="2.2" points="121.8,152.4 153.6,305.0 185.5,356.6 217.3,370.1 249.1,379.0 280.9,390.9 312.7,396.7 344.5,404.1 376.4,408.2 408.2,412.4 440.0,414.3 471.8,420.2 503.6,422.3 535.5,424.1 567.3,427.0 599.1,429.8 630.9,431.4 662.7,435.1 694.5,435.0 726.4,435.9"/>
<line x1="815" y1="118" x2="839" y2="118" stroke="#16a34a" stroke-width="3"/>
<text x="847" y="122" font-family="Arial" font-size="13">event_pretraining</text>
<polyline fill="none" stroke="#9333ea" stroke-width="2.2" points="121.8,148.4 153.6,325.1 185.5,373.7 217.3,389.9 249.1,405.9 280.9,419.3 312.7,427.0 344.5,431.2 376.4,434.1 408.2,442.1 440.0,444.9 471.8,447.0 503.6,451.5 535.5,453.8 567.3,455.7"/>
<line x1="815" y1="142" x2="839" y2="142" stroke="#9333ea" stroke-width="3"/>
<text x="847" y="146" font-family="Arial" font-size="13">evrepsl</text>
<polyline fill="none" stroke="#f97316" stroke-width="2.2" points="121.8,191.4 153.6,345.9 185.5,374.4 217.3,389.1 249.1,399.6 280.9,403.8 312.7,413.2 344.5,418.8 376.4,424.0 408.2,429.4 440.0,429.8 471.8,435.0 503.6,437.1 535.5,440.8 567.3,442.5 599.1,444.8 630.9,446.2 662.7,449.6 694.5,450.4 726.4,449.1 758.2,454.6 790.0,456.9"/>
<line x1="815" y1="166" x2="839" y2="166" stroke="#f97316" stroke-width="3"/>
<text x="847" y="170" font-family="Arial" font-size="13">get</text>
<polyline fill="none" stroke="#0891b2" stroke-width="2.2" points="121.8,155.3 153.6,294.4 185.5,339.1 217.3,380.2 249.1,403.0 280.9,413.9 312.7,420.2 344.5,424.3 376.4,431.3 408.2,436.2 440.0,437.6 471.8,433.7 503.6,444.4 535.5,448.2 567.3,449.8 599.1,450.4 630.9,453.6 662.7,455.8 694.5,455.6 726.4,458.3 758.2,459.7 790.0,461.0"/>
<line x1="815" y1="190" x2="839" y2="190" stroke="#0891b2" stroke-width="3"/>
<text x="847" y="194" font-family="Arial" font-size="13">matrixlstm</text>
</svg>